<svg xmlns="http://www.w3.org/2000/svg" fill="none" viewBox="0 0 180 37">
  <path fill="#000" d="M169.087 0h-21.038v2.166h21.038V0Z" />
  <path fill="#000" d="M150.559 7.698h18.538V9.75h-18.538V7.698Z" />
  <path fill="#000" d="M150.559 15.396h18.538v2.052h-18.538v-2.052Z" />
  <path fill="#000" d="M150.559 23.094h18.538v2.052h-18.538v-2.052Z" />
  <path fill="#000" d="M150.559 30.792h18.538v2.052h-18.538v-2.052Z" />
  <path fill="#000" d="M144.617 36.691h-9.28l-8.308-11.813-8.308 11.813h-9.28l12.892-18.245L109.441.998h9.096l7.924 11.214 7.924-11.214h9.096l-12.203 17.449 12.849 17.245Z" />
  <path fill="#000" d="M93.034 1.527v33.597h-8.168V1.527h8.168Z" />
  <path fill="#000" d="M64.68 34.284c-1.835 1.665-4.33 2.497-7.484 2.497-3.154 0-5.693-.916-7.617-2.747-1.923-1.831-2.885-4.337-2.885-7.517v-16.87h7.813v16.384c0 3.65 1.544 5.475 4.632 5.475 1.658 0 2.954-.55 3.888-1.65.934-1.101 1.401-2.757 1.401-4.968V9.647h7.813v16.09c0 4.43-1.466 7.848-4.399 10.247Zm-23.238-20.216H33.48c-.224-1.574-.93-2.789-2.117-3.645-1.188-.856-2.756-1.284-4.704-1.284-2.365 0-4.25.775-5.654 2.325-1.404 1.55-2.106 3.705-2.106 6.465 0 2.76.703 4.926 2.106 6.498 1.403 1.571 3.289 2.357 5.654 2.357 1.948 0 3.516-.441 4.704-1.325 1.187-.883 1.893-2.136 2.117-3.758h7.962c-.396 3.357-1.808 5.992-4.237 7.905-2.43 1.913-5.645 2.869-9.645 2.869-3.501 0-6.539-.715-9.113-2.144-2.574-1.429-4.564-3.446-5.968-6.051C0 21.751 0 18.68 0 15.68 0 12.68.907 9.83 2.721 7.228c1.814-2.601 4.227-4.62 7.238-6.057 3.012-1.437 6.323-2.156 9.934-2.156 3.72 0 6.82.71 9.302 2.131 2.481 1.42 4.401 3.408 5.758 5.963 1.356 2.555 2.033 5.45 2.033 8.687 0 .298-.01.747-.031 1.345H41.442c0 3.291 1.013 5.695 3.04 7.213 2.026 1.518 4.56 2.277 7.6 2.277 3.621 0 6.452-1.122 8.494-3.365 2.042-2.243 3.063-5.486 3.063-9.729V0h7.813v16.09c0 4.957-1.17 8.69-3.51 11.2-2.339 2.51-5.651 3.765-9.934 3.765-2.565 0-4.839-.48-6.821-1.44-1.982-.96-3.547-2.34-4.694-4.14-1.148-1.8-1.722-3.9-1.722-6.3v-.005c0-3.402.68-6.182 2.04-8.34 1.359-2.159 3.248-3.785 5.666-4.878 2.418-1.093 5.21-1.64 8.376-1.64 3.189 0 6.004.547 8.443 1.64 2.439 1.093 4.347 2.76 5.722 5 1.376 2.24 2.063 4.933 2.063 8.078 0 .734-.026 1.424-.078 2.07H64.68Z" />
</svg>
